<?xml version="1.0" encoding="UTF-8"?>
<svg xmlns="http://www.w3.org/2000/svg" viewBox="0 0 256 256">
  <title>video_view Icon</title>
  <defs>
    <filter id="outerShadow" x="-30%" y="-30%" width="160%" height="160%">
      <feGaussianBlur in="SourceAlpha" stdDeviation="8" result="blur"/>
      <feOffset dy="12" result="off"/>
      <feColorMatrix in="off" type="matrix"
        values="0 0 0 0 0  0 0 0 0 0  0 0 0 0 0  0 0 0 .35 0" result="shadow"/>
      <feMerge><feMergeNode in="shadow"/></feMerge>
    </filter>

    <linearGradient id="panelGrad" x1="0" y1="0" x2="1" y2="1">
      <stop offset="0" stop-color="#3a3a3c"/><stop offset="1" stop-color="#1c1c1e"/>
    </linearGradient>
    <linearGradient id="frameGrad" x1="0" y1="0" x2="1" y2="1">
      <stop offset="0" stop-color="#4a4a4c"/><stop offset="1" stop-color="#2a2a2c"/>
    </linearGradient>

    <filter id="innerBevel" x="-20%" y="-20%" width="140%" height="140%">
      <feGaussianBlur in="SourceAlpha" stdDeviation="2" result="b1"/>
      <feOffset dy="1" result="o1"/>
      <feComposite in="o1" in2="SourceAlpha" operator="arithmetic" k2="-1" k3="1" result="i1"/>
      <feColorMatrix in="i1" type="matrix" values="0 0 0 0 1  0 0 0 0 1  0 0 0 0 1  0 0 0 .08 0" result="hi"/>
      <feGaussianBlur in="SourceAlpha" stdDeviation="2" result="b2"/>
      <feOffset dy="-1" result="o2"/>
      <feComposite in="o2" in2="SourceAlpha" operator="arithmetic" k2="-1" k3="1" result="i2"/>
      <feColorMatrix in="i2" type="matrix" values="0 0 0 0 0  0 0 0 0 0  0 0 0 0 0  0 0 0 .40 0" result="sh"/>
      <feMerge><feMergeNode in="sh"/><feMergeNode in="hi"/></feMerge>
    </filter>

    <linearGradient id="progGrad" x1="0" y1="0" x2="1" y2="0">
      <stop offset="0" stop-color="#00ff88"/><stop offset="1" stop-color="#00cc66"/>
    </linearGradient>
    <filter id="greenGlow" x="-50%" y="-200%" width="200%" height="500%">
      <feGaussianBlur stdDeviation="3"/>
      <feColorMatrix type="matrix" values="0 0 0 0 0  0 1 0 0 0.7  0 0 0 0 0  0 0 0 0.35 0"/>
    </filter>

    <radialGradient id="cdGrad" cx="50%" cy="50%" r="50%">
      <stop offset="0%" stop-color="#2a2a2c"/>
      <stop offset="20%" stop-color="#3a3a3c"/>
      <stop offset="21%" stop-color="#4a4a4c"/>
      <stop offset="22%" stop-color="#5a5a5c"/>
      <stop offset="40%" stop-color="#6a6a6c"/>
      <stop offset="41%" stop-color="#7a7a7c"/>
      <stop offset="42%" stop-color="#8a8a8c"/>
      <stop offset="60%" stop-color="#9a9a9c"/>
      <stop offset="61%" stop-color="#aaaaac"/>
      <stop offset="62%" stop-color="#bababc"/>
      <stop offset="80%" stop-color="#cacace"/>
      <stop offset="100%" stop-color="#dadade"/>
    </radialGradient>
    <radialGradient id="hubGrad" cx="50%" cy="50%" r="50%">
      <stop offset="0%" stop-color="#1c1c1e"/>
      <stop offset="50%" stop-color="#2c2c2e"/>
      <stop offset="100%" stop-color="#3c3c3e"/>
    </radialGradient>

    <filter id="edgeBlur" x="-50%" y="-50%" width="200%" height="200%"><feGaussianBlur stdDeviation="2.8"/></filter>
    <filter id="edgeBlurInner" x="-50%" y="-50%" width="200%" height="200%"><feGaussianBlur stdDeviation="1.8"/></filter>

    <!-- Static reflection on disc -->
    <clipPath id="clipDisc" clipPathUnits="userSpaceOnUse"><circle cx="128" cy="128" r="70"/></clipPath>
    <linearGradient id="refBand" x1="0" y1="0" x2="1" y2="0">
      <stop offset="0" stop-color="white" stop-opacity=".14"/>
      <stop offset=".6" stop-color="white" stop-opacity=".04"/>
      <stop offset="1" stop-color="white" stop-opacity="0"/>
    </linearGradient>
    <!-- Limit blur region to the disc's bbox to avoid overflow -->
    <filter id="refBlurX" filterUnits="userSpaceOnUse" x="58" y="58" width="140" height="140">
      <feGaussianBlur stdDeviation="4 1.3"/>
    </filter>

    <!-- Glass highlight -->
    <linearGradient id="glassGrad" x1="0" y1="0" x2="0" y2="1">
      <stop offset="0" stop-color="white" stop-opacity=".10"/>
      <stop offset="1" stop-color="white" stop-opacity="0"/>
    </linearGradient>

    <!-- Button -->
    <linearGradient id="btnGrad" x1="0" y1="0" x2="1" y2="1">
      <stop offset="0" stop-color="#6a6a6c"/><stop offset="1" stop-color="#3a3a3c"/>
    </linearGradient>
    <filter id="btnShadow" x="-40%" y="-40%" width="180%" height="180%">
      <feDropShadow dx="0" dy="4" stdDeviation="3" flood-color="black" flood-opacity=".35"/>
    </filter>

    <!-- Strong tangential blur for rotating reflection (userSpace to stabilize) -->
    <filter id="wedgeMotionBlur" x="-200" y="-200" width="400" height="400" filterUnits="userSpaceOnUse">
      <feGaussianBlur stdDeviation="5 0.4"/>
    </filter>

    <!-- Edge fade mask for the outer shadow ONLY -->
    <radialGradient id="edgeFadeGrad" gradientUnits="userSpaceOnUse" cx="128" cy="128" r="128">
      <stop offset="0.84" stop-color="white" stop-opacity="1"/>
      <stop offset="1"    stop-color="white" stop-opacity="0"/>
    </radialGradient>
    <mask id="shadowLimit" maskUnits="userSpaceOnUse" x="0" y="0" width="256" height="256">
      <rect x="0" y="0" width="256" height="256" fill="url(#edgeFadeGrad)"/>
    </mask>

    <!-- Clip for inner panel: prevents top glass highlight from overflowing -->
    <clipPath id="clipPanel" clipPathUnits="userSpaceOnUse">
      <rect x="24" y="24" width="208" height="208" rx="40"/>
    </clipPath>

    <!-- Generated triangular gradients for the rotating wedges -->
    
    <linearGradient id="wg1" gradientUnits="userSpaceOnUse" x1="42.945" y1="16.485" x2="16.485" y2="42.945">
      <stop offset="0"   stop-color="white" stop-opacity="0"/>
      <stop offset="0.43" stop-color="white" stop-opacity="0.1187"/>
      <stop offset="0.50" stop-color="white" stop-opacity="0.1250"/>
      <stop offset="0.57" stop-color="white" stop-opacity="0.1187"/>
      <stop offset="1"   stop-color="white" stop-opacity="0"/>
    </linearGradient>
    <linearGradient id="wg2" gradientUnits="userSpaceOnUse" x1="7.196" y1="45.434" x2="-28.949" y2="35.749">
      <stop offset="0"   stop-color="white" stop-opacity="0"/>
      <stop offset="0.43" stop-color="white" stop-opacity="0.0594"/>
      <stop offset="0.50" stop-color="white" stop-opacity="0.0625"/>
      <stop offset="0.57" stop-color="white" stop-opacity="0.0594"/>
      <stop offset="1"   stop-color="white" stop-opacity="0"/>
    </linearGradient>
    <linearGradient id="wg3" gradientUnits="userSpaceOnUse" x1="-35.749" y1="28.949" x2="-45.434" y2="-7.196">
      <stop offset="0"   stop-color="white" stop-opacity="0"/>
      <stop offset="0.43" stop-color="white" stop-opacity="0.1187"/>
      <stop offset="0.50" stop-color="white" stop-opacity="0.1250"/>
      <stop offset="0.57" stop-color="white" stop-opacity="0.1187"/>
      <stop offset="1"   stop-color="white" stop-opacity="0"/>
    </linearGradient>
    <linearGradient id="wg4" gradientUnits="userSpaceOnUse" x1="-42.945" y1="-16.485" x2="-16.485" y2="-42.945">
      <stop offset="0"   stop-color="white" stop-opacity="0"/>
      <stop offset="0.43" stop-color="white" stop-opacity="0.0594"/>
      <stop offset="0.50" stop-color="white" stop-opacity="0.0625"/>
      <stop offset="0.57" stop-color="white" stop-opacity="0.0594"/>
      <stop offset="1"   stop-color="white" stop-opacity="0"/>
    </linearGradient>
    <linearGradient id="wg5" gradientUnits="userSpaceOnUse" x1="-7.196" y1="-45.434" x2="28.949" y2="-35.749">
      <stop offset="0"   stop-color="white" stop-opacity="0"/>
      <stop offset="0.43" stop-color="white" stop-opacity="0.1187"/>
      <stop offset="0.50" stop-color="white" stop-opacity="0.1250"/>
      <stop offset="0.57" stop-color="white" stop-opacity="0.1187"/>
      <stop offset="1"   stop-color="white" stop-opacity="0"/>
    </linearGradient>
    <linearGradient id="wg6" gradientUnits="userSpaceOnUse" x1="35.749" y1="-28.949" x2="45.434" y2="7.196">
      <stop offset="0"   stop-color="white" stop-opacity="0"/>
      <stop offset="0.43" stop-color="white" stop-opacity="0.0594"/>
      <stop offset="0.50" stop-color="white" stop-opacity="0.0625"/>
      <stop offset="0.57" stop-color="white" stop-opacity="0.0594"/>
      <stop offset="1"   stop-color="white" stop-opacity="0"/>
    </linearGradient>
  </defs>

  <!-- SHADOW-ONLY layer, with edge fade mask -->
  <g mask="url(#shadowLimit)">
    <rect x="16" y="16" width="224" height="224" rx="48" fill="black" filter="url(#outerShadow)"/>
  </g>

  <!-- Frame + Panel (no outer shadow filter) -->
  <rect x="16" y="16" width="224" height="224" rx="48" fill="url(#frameGrad)"/>
  <rect x="24" y="24" width="208" height="208" rx="40" fill="url(#panelGrad)" filter="url(#innerBevel)"/>

  <!-- Progress bar -->
  <g transform="translate(68,36)">
    <rect x="0" y="0" width="120" height="8" rx="4" fill="#2a2a2c"/>
    <rect x="0" y="0" width="88" height="8" rx="4" fill="url(#progGrad)"/>
    <rect x="0" y="0" width="88" height="8" rx="4" fill="url(#progGrad)" filter="url(#greenGlow)" opacity=".9"/>
  </g>

  <!-- Disc with rotating long-tail reflection -->
  <g transform="translate(128,128)">
    <circle r="73" fill="none" stroke="black" stroke-opacity=".28" stroke-width="8" filter="url(#edgeBlur)"/>
    <circle r="66" fill="none" stroke="black" stroke-opacity=".18" stroke-width="6" filter="url(#edgeBlurInner)"/>

    <g id="cdSpin">
      <circle r="70" fill="url(#cdGrad)"/>
      <circle r="35" fill="none" stroke="white" stroke-opacity=".06" stroke-width="1"/>
      <circle r="50" fill="none" stroke="white" stroke-opacity=".04" stroke-width="1"/>
      <circle r="60" fill="none" stroke="white" stroke-opacity=".025" stroke-width="1"/>

      <g style="mix-blend-mode:overlay" filter="url(#wedgeMotionBlur)">
        <path d="M 65.351 25.086 A 70 70 0 0 1 25.086 65.351 L 7.884 20.539 A 22 22 0 0 0 20.539 7.884 Z" fill="url(#wg1)" /><path d="M 10.950 69.138 A 70 70 0 0 1 -44.052 54.400 L -13.845 17.097 A 22 22 0 0 0 3.442 21.729 Z" fill="url(#wg2)" /><path d="M -54.400 44.052 A 70 70 0 0 1 -69.138 -10.950 L -21.729 -3.442 A 22 22 0 0 0 -17.097 13.845 Z" fill="url(#wg3)" /><path d="M -65.351 -25.086 A 70 70 0 0 1 -25.086 -65.351 L -7.884 -20.539 A 22 22 0 0 0 -20.539 -7.884 Z" fill="url(#wg4)" /><path d="M -10.950 -69.138 A 70 70 0 0 1 44.052 -54.400 L 13.845 -17.097 A 22 22 0 0 0 -3.442 -21.729 Z" fill="url(#wg5)" /><path d="M 54.400 -44.052 A 70 70 0 0 1 69.138 10.950 L 21.729 3.442 A 22 22 0 0 0 17.097 -13.845 Z" fill="url(#wg6)" />
      </g>

      <circle r="20" fill="url(#hubGrad)"/>
      <animateTransform attributeName="transform" type="rotate" from="0" to="360" dur="4s" repeatCount="indefinite"/>
    </g>
  </g>

  <!-- Static reflection (non-rotating) with safe filter bounds -->
  <g clip-path="url(#clipDisc)">
    <path d="M 58 96 C 92 80 164 80 198 96" fill="none" stroke="url(#refBand)" stroke-width="14" filter="url(#refBlurX)"/>
    <path d="M 60 106 C 96 92 160 92 196 106" fill="none" stroke="white" stroke-opacity=".05" stroke-width="6" filter="url(#refBlurX)"/>
  </g>

  <!-- Button -->
  <g transform="translate(128,196)" filter="url(#btnShadow)">
    <circle r="30" fill="url(#btnGrad)"/>
    <polygon points="-6,-12 12,0 -6,12" fill="white"/>
  </g>

  <!-- Top glass highlight, clipped to the inner panel -->
  <g clip-path="url(#clipPanel)">
    <path d="M 24 24 h 208 a 40 40 0 0 1 -40 40 H 64 a 40 40 0 0 1 -40 -40 z" fill="url(#glassGrad)"/>
  </g>
</svg>
